<svg width="75" height="68" viewBox="0 0 75 68" fill="none" xmlns="http://www.w3.org/2000/svg">
<g filter="url(#filter0_d_8673_2670)">
<ellipse cx="37.5002" cy="30" rx="25.1296" ry="21.6667" fill="white"/>
<path d="M37.5002 4C21.2078 4 8 15.6409 8 30.0002C8 37.3989 11.5062 44.0755 17.1343 48.81C17.0623 51.0675 16.2932 53.302 14.9482 55.0939C17.5558 54.9875 20.1101 53.9229 22.0741 52.1664C26.5625 54.598 31.8457 56.0004 37.5002 56.0004C53.7926 56.0004 67.0004 44.3595 67.0004 30.0002C67.0004 15.6409 53.7926 4 37.5002 4ZM55.8352 42.599C54.748 43.8262 53.1989 44.516 51.5813 44.516H23.4191C21.8015 44.516 20.2524 43.8262 19.1652 42.599C16.0867 39.1239 14.2522 34.7507 14.2522 29.9998C14.2522 25.249 16.0863 20.8761 19.1648 17.401C22.5117 13.622 27.3739 10.5 37.5 10.5C45.948 10.5 52.7599 13.9097 55.8733 17.4436C58.9292 20.9115 60.7482 25.2685 60.7482 29.9994C60.7482 34.7303 58.9137 39.1239 55.8352 42.599Z" fill="url(#paint0_linear_8673_2670)"/>
<path d="M31.2311 29.1936C30.3741 30.545 29.1376 29.1936 26.5542 29.1936C23.9707 29.1936 22.7346 30.545 21.8776 29.1936C21.0482 27.8852 23.3365 24.6578 26.5542 24.6578C29.7718 24.6578 32.0602 27.8856 31.2311 29.1936Z" fill="#46359D"/>
<path d="M53.1223 29.1936C52.2653 30.545 51.0287 29.1936 48.4453 29.1936C45.8618 29.1936 44.6257 30.545 43.7687 29.1936C42.9393 27.8852 45.2276 24.6578 48.4453 24.6578C51.6629 24.6578 53.9513 27.8856 53.1223 29.1936Z" fill="#46359D"/>
<path d="M37.4996 35.3421C35.6966 35.3421 34.5071 33.8776 34.4573 33.8155C34.1879 33.4777 34.2365 32.9798 34.5662 32.7038C34.8959 32.4278 35.382 32.4776 35.6515 32.8153C35.6565 32.8213 36.4381 33.7621 37.4996 33.7621C38.5612 33.7621 39.3427 32.8213 39.3505 32.8118C39.62 32.474 40.1045 32.4258 40.4342 32.7018C40.7639 32.9779 40.8114 33.4773 40.5415 33.8151C40.4918 33.8776 39.3023 35.3417 37.4992 35.3417L37.4996 35.3421Z" fill="#46359D"/>
</g>
<defs>
<filter id="filter0_d_8673_2670" x="0" y="0" width="75.0005" height="68.0004" filterUnits="userSpaceOnUse" color-interpolation-filters="sRGB">
<feFlood flood-opacity="0" result="BackgroundImageFix"/>
<feColorMatrix in="SourceAlpha" type="matrix" values="0 0 0 0 0 0 0 0 0 0 0 0 0 0 0 0 0 0 127 0" result="hardAlpha"/>
<feOffset dy="4"/>
<feGaussianBlur stdDeviation="4"/>
<feComposite in2="hardAlpha" operator="out"/>
<feColorMatrix type="matrix" values="0 0 0 0 0 0 0 0 0 0 0 0 0 0 0 0 0 0 0.25 0"/>
<feBlend mode="normal" in2="BackgroundImageFix" result="effect1_dropShadow_8673_2670"/>
<feBlend mode="normal" in="SourceGraphic" in2="effect1_dropShadow_8673_2670" result="shape"/>
</filter>
<linearGradient id="paint0_linear_8673_2670" x1="67.0004" y1="30.0002" x2="8" y2="30.0002" gradientUnits="userSpaceOnUse">
<stop stop-color="#99A1E3"/>
<stop offset="0.129808" stop-color="#858EDC"/>
<stop offset="0.389423" stop-color="#635EBA"/>
<stop offset="1" stop-color="#43319A"/>
</linearGradient>
</defs>
</svg>
